<?xml version="1.0" encoding="UTF-8" standalone="no"?>
<!-- Created with Inkscape (http://www.inkscape.org/) -->

<svg
   xmlns:dc="http://purl.org/dc/elements/1.1/"
   xmlns:cc="http://creativecommons.org/ns#"
   xmlns:rdf="http://www.w3.org/1999/02/22-rdf-syntax-ns#"
   xmlns:svg="http://www.w3.org/2000/svg"
   xmlns="http://www.w3.org/2000/svg"
   xmlns:sodipodi="http://sodipodi.sourceforge.net/DTD/sodipodi-0.dtd"
   xmlns:inkscape="http://www.inkscape.org/namespaces/inkscape"
   width="512"
   height="512"
   id="svg2"
   version="1.1"
   inkscape:version="0.48.5 r10040"
   sodipodi:docname="gula.svg">
  <defs
     id="defs4">
    <inkscape:perspective
       sodipodi:type="inkscape:persp3d"
       inkscape:vp_x="0 : 526.18109 : 1"
       inkscape:vp_y="0 : 1000 : 0"
       inkscape:vp_z="744.09448 : 526.18109 : 1"
       inkscape:persp3d-origin="372.04724 : 350.78739 : 1"
       id="perspective3001" />
  </defs>
  <sodipodi:namedview
     id="base"
     pagecolor="#ffffff"
     bordercolor="#666666"
     borderopacity="1.0"
     inkscape:pageopacity="0.0"
     inkscape:pageshadow="2"
     inkscape:zoom="1"
     inkscape:cx="210.3063"
     inkscape:cy="77.892042"
     inkscape:document-units="px"
     inkscape:current-layer="layer2"
     showgrid="false"
     inkscape:showpageshadow="false"
     borderlayer="true"
     showguides="false"
     inkscape:guide-bbox="true"
     inkscape:window-width="1360"
     inkscape:window-height="743"
     inkscape:window-x="0"
     inkscape:window-y="0"
     inkscape:window-maximized="0"
     showborder="false">
    <inkscape:grid
       type="xygrid"
       id="grid3003"
       empspacing="8"
       visible="true"
       enabled="true"
       snapvisiblegridlinesonly="true"
       spacingx="16px"
       spacingy="16px" />
    <sodipodi:guide
       orientation="1,0"
       position="320,144"
       id="guide3005" />
    <sodipodi:guide
       orientation="1,0"
       position="192,160"
       id="guide3007" />
    <sodipodi:guide
       orientation="0,1"
       position="256,128"
       id="guide3009" />
    <sodipodi:guide
       orientation="0,1"
       position="272,256"
       id="guide3011" />
    <sodipodi:guide
       orientation="0,1"
       position="272,0"
       id="guide3013" />
    <sodipodi:guide
       orientation="1,0"
       position="256,192"
       id="guide3015" />
    <sodipodi:guide
       orientation="1,0"
       position="128,192"
       id="guide3017" />
    <sodipodi:guide
       orientation="1,0"
       position="384,192"
       id="guide3019" />
    <sodipodi:guide
       orientation="0,1"
       position="272,320"
       id="guide3814" />
    <sodipodi:guide
       orientation="0,1"
       position="288,384"
       id="guide3816" />
    <sodipodi:guide
       orientation="0,1"
       position="272,448"
       id="guide3818" />
    <sodipodi:guide
       orientation="0,1"
       position="272,512"
       id="guide3820" />
  </sodipodi:namedview>
  <metadata
     id="metadata7">
    <rdf:RDF>
      <cc:Work
         rdf:about="">
        <dc:format>image/svg+xml</dc:format>
        <dc:type
           rdf:resource="http://purl.org/dc/dcmitype/StillImage" />
        <dc:title />
      </cc:Work>
    </rdf:RDF>
  </metadata>
  <g
     inkscape:label="Capa 1"
     inkscape:groupmode="layer"
     id="layer1"
     transform="translate(0,-540.36218)"
     sodipodi:insensitive="true"
     style="display:none">
    <path
       style="fill:none;stroke:#000000;stroke-opacity:1"
       d="m 192,256 c -80,64 -86.87742,201.70162 0,256 42.9057,26.81606 85.09431,26.81607 128,10e-6 C 406.87742,457.70162 400,320 320,256"
       id="path3040"
       inkscape:connector-curvature="0"
       transform="translate(0,540.36218)"
       sodipodi:nodetypes="cssc" />
    <path
       style="fill:none;stroke:#000000"
       d="M 158.48893,481.51107 350.875,289.125"
       id="path3005"
       inkscape:connector-curvature="0"
       transform="translate(0,540.36218)"
       sodipodi:nodetypes="cc" />
    <path
       inkscape:connector-curvature="0"
       id="path3007"
       d="M 192,1052.3622 372.49426,871.86793"
       style="fill:none;stroke:#000000"
       sodipodi:nodetypes="cc" />
    <path
       style="fill:none;stroke:#000000"
       d="M 237.5625,1070.7997 382.50001,925.86218"
       id="path3009"
       inkscape:connector-curvature="0"
       sodipodi:nodetypes="cc" />
    <path
       inkscape:connector-curvature="0"
       id="path3011"
       d="M 136.67732,979.68488 320,796.36218"
       style="fill:none;stroke:#000000"
       sodipodi:nodetypes="cc" />
    <path
       style="fill:none;stroke:#000000"
       d="M 129.63001,922.73218 256,796.36218"
       id="path3013"
       inkscape:connector-curvature="0"
       sodipodi:nodetypes="cc" />
    <path
       sodipodi:nodetypes="cc"
       inkscape:connector-curvature="0"
       id="path3027"
       d="M 353.64109,1021.8733 161.25502,829.48718"
       style="fill:none;stroke:#000000" />
    <path
       sodipodi:nodetypes="cc"
       style="fill:none;stroke:#000000"
       d="M 320.13002,1052.3622 139.63576,871.86793"
       id="path3029"
       inkscape:connector-curvature="0" />
    <path
       sodipodi:nodetypes="cc"
       inkscape:connector-curvature="0"
       id="path3031"
       d="M 274.56752,1070.7997 129.63001,925.86218"
       style="fill:none;stroke:#000000" />
    <path
       sodipodi:nodetypes="cc"
       style="fill:none;stroke:#000000"
       d="M 375.4527,979.68488 192.13002,796.36218"
       id="path3033"
       inkscape:connector-curvature="0" />
    <path
       sodipodi:nodetypes="cc"
       inkscape:connector-curvature="0"
       id="path3035"
       d="m 382.50001,922.73218 -126.36999,-126.37"
       style="fill:none;stroke:#000000" />
  </g>
  <g
     inkscape:groupmode="layer"
     id="layer2"
     inkscape:label="+">
    <path
       style="fill:none;stroke:#808000;stroke-width:2.5;stroke-linecap:butt;stroke-linejoin:round;stroke-miterlimit:4;stroke-opacity:1;stroke-dasharray:none;stroke-dashoffset:0"
       d="m 223.62505,415.06601 c 4.74098,-17.51399 25.83381,-13.19606 32.1195,-32.12426 6.28569,18.9282 27.37852,14.61026 32.1195,32.12426"
       id="path3038"
       inkscape:connector-curvature="0"
       sodipodi:nodetypes="ccc" />
    <path
       sodipodi:nodetypes="ccc"
       inkscape:connector-curvature="0"
       id="path3051"
       d="m 287.81955,415.06601 c 4.74098,-17.51399 25.83381,-13.19606 32.1195,-32.12426 6.28569,18.9282 27.37852,14.61026 32.1195,32.12426"
       style="fill:none;stroke:#808000;stroke-width:2.5;stroke-linecap:butt;stroke-linejoin:round;stroke-miterlimit:4;stroke-opacity:1;stroke-dasharray:none;stroke-dashoffset:0" />
    <path
       style="fill:none;stroke:#808000;stroke-width:2.5;stroke-linecap:butt;stroke-linejoin:round;stroke-miterlimit:4;stroke-opacity:1;stroke-dasharray:none;stroke-dashoffset:0"
       d="m 159.43054,415.06601 c 4.74098,-17.51399 25.83381,-13.19606 32.1195,-32.12426 6.28569,18.9282 27.37852,14.61026 32.1195,32.12426"
       id="path3053"
       inkscape:connector-curvature="0"
       sodipodi:nodetypes="ccc" />
    <path
       sodipodi:nodetypes="ccc"
       inkscape:connector-curvature="0"
       id="path3093"
       d="m 352.01407,415.06601 c 4.74098,-17.51399 25.83381,-13.19606 32.1195,-32.12426 6.28569,18.9282 27.37852,14.61026 32.1195,32.12426"
       style="fill:none;stroke:#808000;stroke-width:2.5;stroke-linecap:butt;stroke-linejoin:round;stroke-miterlimit:4;stroke-opacity:1;stroke-dasharray:none;stroke-dashoffset:0" />
    <path
       style="fill:none;stroke:#808000;stroke-width:2.5;stroke-linecap:butt;stroke-linejoin:round;stroke-miterlimit:4;stroke-opacity:1;stroke-dasharray:none;stroke-dashoffset:0"
       d="m 95.236031,415.06601 c 4.740979,-17.51399 25.833809,-13.19606 32.119499,-32.12426 6.28569,18.9282 27.37852,14.61026 32.1195,32.12426"
       id="path3095"
       inkscape:connector-curvature="0"
       sodipodi:nodetypes="ccc" />
    <path
       sodipodi:nodetypes="ccc"
       inkscape:connector-curvature="0"
       id="path3131"
       d="m 255.62505,447.06601 c 4.74098,-17.51399 25.83381,-13.19606 32.1195,-32.12426 6.28569,18.9282 27.37852,14.61026 32.1195,32.12426"
       style="fill:none;stroke:#808000;stroke-width:2.5;stroke-linecap:butt;stroke-linejoin:round;stroke-miterlimit:4;stroke-opacity:1;stroke-dasharray:none;stroke-dashoffset:0" />
    <path
       style="fill:none;stroke:#808000;stroke-width:2.5;stroke-linecap:butt;stroke-linejoin:round;stroke-miterlimit:4;stroke-opacity:1;stroke-dasharray:none;stroke-dashoffset:0"
       d="m 319.81955,447.06601 c 4.74098,-17.51399 25.83381,-13.19606 32.1195,-32.12426 6.28569,18.9282 27.37852,14.61026 32.1195,32.12426"
       id="path3133"
       inkscape:connector-curvature="0"
       sodipodi:nodetypes="ccc" />
    <path
       sodipodi:nodetypes="ccc"
       inkscape:connector-curvature="0"
       id="path3135"
       d="m 191.43054,447.06601 c 4.74098,-17.51399 25.83381,-13.19606 32.1195,-32.12426 6.28569,18.9282 27.37852,14.61026 32.1195,32.12426"
       style="fill:none;stroke:#808000;stroke-width:2.5;stroke-linecap:butt;stroke-linejoin:round;stroke-miterlimit:4;stroke-opacity:1;stroke-dasharray:none;stroke-dashoffset:0" />
    <path
       sodipodi:nodetypes="ccc"
       inkscape:connector-curvature="0"
       id="path3139"
       d="m 127.23603,447.06601 c 4.74098,-17.51399 25.83381,-13.19606 32.1195,-32.12426 6.28569,18.9282 27.37852,14.61026 32.1195,32.12426"
       style="fill:none;stroke:#808000;stroke-width:2.5;stroke-linecap:butt;stroke-linejoin:round;stroke-miterlimit:4;stroke-opacity:1;stroke-dasharray:none;stroke-dashoffset:0" />
    <path
       sodipodi:nodetypes="ccc"
       inkscape:connector-curvature="0"
       id="path3143"
       d="m 223.62505,479.56601 c 4.74098,-17.51399 25.83381,-13.19606 32.1195,-32.12426 6.28569,18.9282 27.37852,14.61026 32.1195,32.12426"
       style="fill:none;stroke:#808000;stroke-width:2.5;stroke-linecap:butt;stroke-linejoin:round;stroke-miterlimit:4;stroke-opacity:1;stroke-dasharray:none;stroke-dashoffset:0" />
    <path
       style="fill:none;stroke:#808000;stroke-width:2.5;stroke-linecap:butt;stroke-linejoin:round;stroke-miterlimit:4;stroke-opacity:1;stroke-dasharray:none;stroke-dashoffset:0"
       d="m 287.81955,479.56601 c 4.74098,-17.51399 25.83381,-13.19606 32.1195,-32.12426 6.28569,18.9282 27.37852,14.61026 32.1195,32.12426"
       id="path3145"
       inkscape:connector-curvature="0"
       sodipodi:nodetypes="ccc" />
    <path
       sodipodi:nodetypes="ccc"
       inkscape:connector-curvature="0"
       id="path3147"
       d="m 159.43054,479.56601 c 4.74098,-17.51399 25.83381,-13.19606 32.1195,-32.12426 6.28569,18.9282 27.37852,14.61026 32.1195,32.12426"
       style="fill:none;stroke:#808000;stroke-width:2.5;stroke-linecap:butt;stroke-linejoin:round;stroke-miterlimit:4;stroke-opacity:1;stroke-dasharray:none;stroke-dashoffset:0" />
    <path
       style="fill:none;stroke:#808000;stroke-width:2.5;stroke-linecap:butt;stroke-linejoin:round;stroke-miterlimit:4;stroke-opacity:1;stroke-dasharray:none;stroke-dashoffset:0"
       d="m 352.01407,479.56601 c 4.74098,-17.51399 25.83381,-13.19606 32.1195,-32.12426 6.28569,18.9282 27.37852,14.61026 32.1195,32.12426"
       id="path3149"
       inkscape:connector-curvature="0"
       sodipodi:nodetypes="ccc" />
    <path
       sodipodi:nodetypes="ccc"
       inkscape:connector-curvature="0"
       id="path3151"
       d="m 95.236031,479.56601 c 4.740979,-17.51399 25.833809,-13.19606 32.119499,-32.12426 6.28569,18.9282 27.37852,14.61026 32.1195,32.12426"
       style="fill:none;stroke:#808000;stroke-width:2.5;stroke-linecap:butt;stroke-linejoin:round;stroke-miterlimit:4;stroke-opacity:1;stroke-dasharray:none;stroke-dashoffset:0" />
    <path
       style="fill:none;stroke:#808000;stroke-width:2.5;stroke-linecap:butt;stroke-linejoin:round;stroke-miterlimit:4;stroke-opacity:1;stroke-dasharray:none;stroke-dashoffset:0"
       d="m 255.62505,511.56601 c 4.74098,-17.51399 25.83381,-13.19606 32.1195,-32.12426 6.28569,18.9282 27.37852,14.61026 32.1195,32.12426"
       id="path3155"
       inkscape:connector-curvature="0"
       sodipodi:nodetypes="ccc" />
    <path
       sodipodi:nodetypes="ccc"
       inkscape:connector-curvature="0"
       id="path3157"
       d="m 319.81955,511.56601 c 4.74098,-17.51399 25.83381,-13.19606 32.1195,-32.12426 6.28569,18.9282 27.37852,14.61026 32.1195,32.12426"
       style="fill:none;stroke:#808000;stroke-width:2.5;stroke-linecap:butt;stroke-linejoin:round;stroke-miterlimit:4;stroke-opacity:1;stroke-dasharray:none;stroke-dashoffset:0" />
    <path
       style="fill:none;stroke:#808000;stroke-width:2.5;stroke-linecap:butt;stroke-linejoin:round;stroke-miterlimit:4;stroke-opacity:1;stroke-dasharray:none;stroke-dashoffset:0"
       d="m 191.43054,511.56601 c 4.74098,-17.51399 25.83381,-13.19606 32.1195,-32.12426 6.28569,18.9282 27.37852,14.61026 32.1195,32.12426"
       id="path3159"
       inkscape:connector-curvature="0"
       sodipodi:nodetypes="ccc" />
    <path
       style="fill:none;stroke:#808000;stroke-width:2.5;stroke-linecap:butt;stroke-linejoin:round;stroke-miterlimit:4;stroke-opacity:1;stroke-dasharray:none;stroke-dashoffset:0"
       d="m 127.23603,511.56601 c 4.74098,-17.51399 25.83381,-13.19606 32.1195,-32.12426 6.28569,18.9282 27.37852,14.61026 32.1195,32.12426"
       id="path3163"
       inkscape:connector-curvature="0"
       sodipodi:nodetypes="ccc" />
    <path
       sodipodi:nodetypes="ccc"
       inkscape:connector-curvature="0"
       id="path3167"
       d="m 223.62505,287.06601 c 4.74098,-17.51399 25.83381,-13.19606 32.1195,-32.12426 6.28569,18.9282 27.37852,14.61026 32.1195,32.12426"
       style="fill:none;stroke:#808000;stroke-width:2.5;stroke-linecap:butt;stroke-linejoin:round;stroke-miterlimit:4;stroke-opacity:1;stroke-dasharray:none;stroke-dashoffset:0" />
    <path
       style="fill:none;stroke:#808000;stroke-width:2.5;stroke-linecap:butt;stroke-linejoin:round;stroke-miterlimit:4;stroke-opacity:1;stroke-dasharray:none;stroke-dashoffset:0"
       d="m 287.81955,287.06601 c 4.74098,-17.51399 25.83381,-13.19606 32.1195,-32.12426 6.28569,18.9282 27.37852,14.61026 32.1195,32.12426"
       id="path3169"
       inkscape:connector-curvature="0"
       sodipodi:nodetypes="ccc" />
    <path
       sodipodi:nodetypes="ccc"
       inkscape:connector-curvature="0"
       id="path3171"
       d="m 159.43054,287.06601 c 4.74098,-17.51399 25.83381,-13.19606 32.1195,-32.12426 6.28569,18.9282 27.37852,14.61026 32.1195,32.12426"
       style="fill:none;stroke:#808000;stroke-width:2.5;stroke-linecap:butt;stroke-linejoin:round;stroke-miterlimit:4;stroke-opacity:1;stroke-dasharray:none;stroke-dashoffset:0" />
    <path
       style="fill:none;stroke:#808000;stroke-width:2.5;stroke-linecap:butt;stroke-linejoin:round;stroke-miterlimit:4;stroke-opacity:1;stroke-dasharray:none;stroke-dashoffset:0"
       d="m 255.62505,319.06601 c 4.74098,-17.51399 25.83381,-13.19606 32.1195,-32.12426 6.28569,18.9282 27.37852,14.61026 32.1195,32.12426"
       id="path3179"
       inkscape:connector-curvature="0"
       sodipodi:nodetypes="ccc" />
    <path
       sodipodi:nodetypes="ccc"
       inkscape:connector-curvature="0"
       id="path3181"
       d="m 319.81955,319.06601 c 4.74098,-17.51399 25.83381,-13.19606 32.1195,-32.12426 6.28569,18.9282 27.37852,14.61026 32.1195,32.12426"
       style="fill:none;stroke:#808000;stroke-width:2.5;stroke-linecap:butt;stroke-linejoin:round;stroke-miterlimit:4;stroke-opacity:1;stroke-dasharray:none;stroke-dashoffset:0" />
    <path
       style="fill:none;stroke:#808000;stroke-width:2.5;stroke-linecap:butt;stroke-linejoin:round;stroke-miterlimit:4;stroke-opacity:1;stroke-dasharray:none;stroke-dashoffset:0"
       d="m 191.43054,319.06601 c 4.74098,-17.51399 25.83381,-13.19606 32.1195,-32.12426 6.28569,18.9282 27.37852,14.61026 32.1195,32.12426"
       id="path3183"
       inkscape:connector-curvature="0"
       sodipodi:nodetypes="ccc" />
    <path
       style="fill:none;stroke:#808000;stroke-width:2.5;stroke-linecap:butt;stroke-linejoin:round;stroke-miterlimit:4;stroke-opacity:1;stroke-dasharray:none;stroke-dashoffset:0"
       d="m 127.23603,319.06601 c 4.74098,-17.51399 25.83381,-13.19606 32.1195,-32.12426 6.28569,18.9282 27.37852,14.61026 32.1195,32.12426"
       id="path3187"
       inkscape:connector-curvature="0"
       sodipodi:nodetypes="ccc" />
    <path
       style="fill:none;stroke:#808000;stroke-width:2.5;stroke-linecap:butt;stroke-linejoin:round;stroke-miterlimit:4;stroke-opacity:1;stroke-dasharray:none;stroke-dashoffset:0"
       d="m 223.62505,351.56601 c 4.74098,-17.51399 25.83381,-13.19606 32.1195,-32.12426 6.28569,18.9282 27.37852,14.61026 32.1195,32.12426"
       id="path3191"
       inkscape:connector-curvature="0"
       sodipodi:nodetypes="ccc" />
    <path
       sodipodi:nodetypes="ccc"
       inkscape:connector-curvature="0"
       id="path3193"
       d="m 287.81955,351.56601 c 4.74098,-17.51399 25.83381,-13.19606 32.1195,-32.12426 6.28569,18.9282 27.37852,14.61026 32.1195,32.12426"
       style="fill:none;stroke:#808000;stroke-width:2.5;stroke-linecap:butt;stroke-linejoin:round;stroke-miterlimit:4;stroke-opacity:1;stroke-dasharray:none;stroke-dashoffset:0" />
    <path
       style="fill:none;stroke:#808000;stroke-width:2.5;stroke-linecap:butt;stroke-linejoin:round;stroke-miterlimit:4;stroke-opacity:1;stroke-dasharray:none;stroke-dashoffset:0"
       d="m 159.43054,351.56601 c 4.74098,-17.51399 25.83381,-13.19606 32.1195,-32.12426 6.28569,18.9282 27.37852,14.61026 32.1195,32.12426"
       id="path3195"
       inkscape:connector-curvature="0"
       sodipodi:nodetypes="ccc" />
    <path
       sodipodi:nodetypes="ccc"
       inkscape:connector-curvature="0"
       id="path3197"
       d="m 352.01407,351.56601 c 4.74098,-17.51399 25.83381,-13.19606 32.1195,-32.12426 6.28569,18.9282 27.37852,14.61026 32.1195,32.12426"
       style="fill:none;stroke:#808000;stroke-width:2.5;stroke-linecap:butt;stroke-linejoin:round;stroke-miterlimit:4;stroke-opacity:1;stroke-dasharray:none;stroke-dashoffset:0" />
    <path
       style="fill:none;stroke:#808000;stroke-width:2.5;stroke-linecap:butt;stroke-linejoin:round;stroke-miterlimit:4;stroke-opacity:1;stroke-dasharray:none;stroke-dashoffset:0"
       d="m 95.236031,351.56601 c 4.740979,-17.51399 25.833809,-13.19606 32.119499,-32.12426 6.28569,18.9282 27.37852,14.61026 32.1195,32.12426"
       id="path3199"
       inkscape:connector-curvature="0"
       sodipodi:nodetypes="ccc" />
    <path
       sodipodi:nodetypes="ccc"
       inkscape:connector-curvature="0"
       id="path3203"
       d="m 255.62505,383.56601 c 4.74098,-17.51399 25.83381,-13.19606 32.1195,-32.12426 6.28569,18.9282 27.37852,14.61026 32.1195,32.12426"
       style="fill:none;stroke:#808000;stroke-width:2.5;stroke-linecap:butt;stroke-linejoin:round;stroke-miterlimit:4;stroke-opacity:1;stroke-dasharray:none;stroke-dashoffset:0" />
    <path
       style="fill:none;stroke:#808000;stroke-width:2.5;stroke-linecap:butt;stroke-linejoin:round;stroke-miterlimit:4;stroke-opacity:1;stroke-dasharray:none;stroke-dashoffset:0"
       d="m 319.81955,383.56601 c 4.74098,-17.51399 25.83381,-13.19606 32.1195,-32.12426 6.28569,18.9282 27.37852,14.61026 32.1195,32.12426"
       id="path3205"
       inkscape:connector-curvature="0"
       sodipodi:nodetypes="ccc" />
    <path
       sodipodi:nodetypes="ccc"
       inkscape:connector-curvature="0"
       id="path3207"
       d="m 191.43054,383.56601 c 4.74098,-17.51399 25.83381,-13.19606 32.1195,-32.12426 6.28569,18.9282 27.37852,14.61026 32.1195,32.12426"
       style="fill:none;stroke:#808000;stroke-width:2.5;stroke-linecap:butt;stroke-linejoin:round;stroke-miterlimit:4;stroke-opacity:1;stroke-dasharray:none;stroke-dashoffset:0" />
    <path
       sodipodi:nodetypes="ccc"
       inkscape:connector-curvature="0"
       id="path3211"
       d="m 127.23603,383.56601 c 4.74098,-17.51399 25.83381,-13.19606 32.1195,-32.12426 6.28569,18.9282 27.37852,14.61026 32.1195,32.12426"
       style="fill:none;stroke:#808000;stroke-width:2.5;stroke-linecap:butt;stroke-linejoin:round;stroke-miterlimit:4;stroke-opacity:1;stroke-dasharray:none;stroke-dashoffset:0" />
    <path
       style="fill:none;stroke:#808000;stroke-width:2.5;stroke-linecap:butt;stroke-linejoin:round;stroke-miterlimit:4;stroke-opacity:1;stroke-dasharray:none;stroke-dashoffset:0"
       d="m 223.62505,542.49851 c 4.74098,-17.51399 25.83381,-13.19606 32.1195,-32.12426 6.28569,18.9282 27.37852,14.61026 32.1195,32.12426"
       id="path3215"
       inkscape:connector-curvature="0"
       sodipodi:nodetypes="ccc" />
    <path
       sodipodi:nodetypes="ccc"
       inkscape:connector-curvature="0"
       id="path3217"
       d="m 287.81955,542.49851 c 4.74098,-17.51399 25.83381,-13.19606 32.1195,-32.12426 6.28569,18.9282 27.37852,14.61026 32.1195,32.12426"
       style="fill:none;stroke:#808000;stroke-width:2.5;stroke-linecap:butt;stroke-linejoin:round;stroke-miterlimit:4;stroke-opacity:1;stroke-dasharray:none;stroke-dashoffset:0" />
    <path
       style="fill:none;stroke:#808000;stroke-width:2.5;stroke-linecap:butt;stroke-linejoin:round;stroke-miterlimit:4;stroke-opacity:1;stroke-dasharray:none;stroke-dashoffset:0"
       d="m 159.43054,542.49851 c 4.74098,-17.51399 25.83381,-13.19606 32.1195,-32.12426 6.28569,18.9282 27.37852,14.61026 32.1195,32.12426"
       id="path3219"
       inkscape:connector-curvature="0"
       sodipodi:nodetypes="ccc" />
  </g>
</svg>
