<?xml version="1.0" encoding="UTF-8" standalone="no"?>
<!-- Created with Inkscape (http://www.inkscape.org/) -->

<svg
   xmlns:dc="http://purl.org/dc/elements/1.1/"
   xmlns:cc="http://creativecommons.org/ns#"
   xmlns:rdf="http://www.w3.org/1999/02/22-rdf-syntax-ns#"
   xmlns:svg="http://www.w3.org/2000/svg"
   xmlns="http://www.w3.org/2000/svg"
   xmlns:sodipodi="http://sodipodi.sourceforge.net/DTD/sodipodi-0.dtd"
   xmlns:inkscape="http://www.inkscape.org/namespaces/inkscape"
   width="210mm"
   height="297mm"
   id="svg2"
   version="1.1"
   inkscape:version="0.48.5 r10040"
   sodipodi:docname="Documento nuevo 1">
  <defs
     id="defs4" />
  <sodipodi:namedview
     id="base"
     pagecolor="#ffffff"
     bordercolor="#666666"
     borderopacity="1.0"
     inkscape:pageopacity="0.0"
     inkscape:pageshadow="2"
     inkscape:zoom="0.175"
     inkscape:cx="350"
     inkscape:cy="520"
     inkscape:document-units="px"
     inkscape:current-layer="layer1"
     showgrid="false"
     inkscape:window-width="1360"
     inkscape:window-height="743"
     inkscape:window-x="0"
     inkscape:window-y="0"
     inkscape:window-maximized="0" />
  <metadata
     id="metadata7">
    <rdf:RDF>
      <cc:Work
         rdf:about="">
        <dc:format>image/svg+xml</dc:format>
        <dc:type
           rdf:resource="http://purl.org/dc/dcmitype/StillImage" />
        <dc:title></dc:title>
      </cc:Work>
    </rdf:RDF>
  </metadata>
  <g
     inkscape:label="Capa 1"
     inkscape:groupmode="layer"
     id="layer1">
    <g
       style="display:inline"
       id="g3861"
       transform="translate(-1094.1981,-891.33741)">
      <path
         transform="matrix(1.4513274,0,0,1.4513274,478.4507,-312.76008)"
         d="m 1140.2097,1162.9962 c 0,275.8078 -223.58637,499.3942 -499.39415,499.3942 -275.80778,0 -499.39416,-223.5864 -499.39416,-499.3942 0,-275.80777 223.58638,-499.39415 499.39416,-499.39415 275.80778,0 499.39415,223.58638 499.39415,499.39415 z"
         sodipodi:ry="499.39417"
         sodipodi:rx="499.39417"
         sodipodi:cy="1162.9962"
         sodipodi:cx="640.81555"
         id="path3853"
         style="fill:#000000;fill-opacity:1;fill-rule:evenodd;stroke:none"
         sodipodi:type="arc" />
      <path
         sodipodi:open="true"
         sodipodi:end="3.6244728"
         sodipodi:start="2.9841714"
         transform="matrix(1.4189282,0,0,1.4189282,-682.62705,-701.45216)"
         d="m 1238.1371,1521.4025 c -7.9423,-50.0352 0.474,-101.2977 23.9979,-146.1668"
         sodipodi:ry="235.33397"
         sodipodi:rx="235.33397"
         sodipodi:cy="1484.5088"
         sodipodi:cx="1470.5612"
         id="path3837"
         style="fill:none;stroke:#f8eb11;stroke-width:37.45757294;stroke-linecap:butt;stroke-miterlimit:4;stroke-opacity:1;stroke-dasharray:none"
         sodipodi:type="arc" />
      <path
         sodipodi:open="true"
         sodipodi:end="3.732961"
         sodipodi:start="2.9289137"
         sodipodi:type="arc"
         style="fill:none;stroke:#f8eb11;stroke-width:27.50344849;stroke-miterlimit:4;stroke-opacity:1;stroke-dasharray:none"
         id="path3839"
         sodipodi:cx="1470.5612"
         sodipodi:cy="1484.5088"
         sodipodi:rx="235.33397"
         sodipodi:ry="235.33397"
         d="m 1240.5295,1534.1829 c -13.4957,-62.4961 -0.9821,-127.7934 34.6624,-180.8722"
         transform="matrix(1.9679557,0,0,1.9679557,-1490.0056,-1516.4884)" />
      <path
         sodipodi:open="true"
         sodipodi:end="6.5289228"
         sodipodi:start="5.563024"
         transform="matrix(2.5040644,0,0,2.5040644,-2278.3862,-2312.3464)"
         d="m 1647.4616,1329.3046 c 50.9649,58.0895 70.1631,137.4984 51.3637,212.4543"
         sodipodi:ry="235.33397"
         sodipodi:rx="235.33397"
         sodipodi:cy="1484.5088"
         sodipodi:cx="1470.5612"
         id="path3841"
         style="fill:none;stroke:#f8eb11;stroke-width:21.22533607;stroke-miterlimit:4;stroke-opacity:1;stroke-dasharray:none"
         sodipodi:type="arc" />
      <path
         sodipodi:open="true"
         sodipodi:end="6.4431877"
         sodipodi:start="5.7637906"
         sodipodi:type="arc"
         style="fill:none;stroke:#f8eb11;stroke-width:37.45757294;stroke-miterlimit:4;stroke-opacity:1;stroke-dasharray:none"
         id="path3843"
         sodipodi:cx="1470.5612"
         sodipodi:cy="1484.5088"
         sodipodi:rx="235.33397"
         sodipodi:ry="235.33397"
         d="m 1674.8592,1367.6997 c 26.7106,46.7166 36.6036,101.1764 28.03,154.3026"
         transform="matrix(1.4189282,0,0,1.4189282,-682.62705,-701.45216)" />
      <path
         sodipodi:open="true"
         sodipodi:end="6.4884458"
         sodipodi:start="5.6310819"
         transform="matrix(1.9679557,0,0,1.9679557,-1490.0056,-1516.4884)"
         d="m 1657.6067,1341.6941 c 41.4515,54.2893 57.2703,123.91 43.3483,190.781"
         sodipodi:ry="235.33397"
         sodipodi:rx="235.33397"
         sodipodi:cy="1484.5088"
         sodipodi:cx="1470.5612"
         id="path3845"
         style="fill:none;stroke:#f8eb11;stroke-width:27.50344849;stroke-miterlimit:4;stroke-opacity:1;stroke-dasharray:none"
         sodipodi:type="arc" />
      <path
         sodipodi:open="true"
         sodipodi:end="3.7998656"
         sodipodi:start="2.8979117"
         sodipodi:type="arc"
         style="fill:none;stroke:#f8eb11;stroke-width:21.22533607;stroke-miterlimit:4;stroke-opacity:1;stroke-dasharray:none"
         id="path3847"
         sodipodi:cx="1470.5612"
         sodipodi:cy="1484.5088"
         sodipodi:rx="235.33397"
         sodipodi:ry="235.33397"
         d="m 1242.1798,1541.2893 c -17.3665,-69.851 -1.8119,-143.8086 42.2204,-200.7464"
         transform="matrix(2.5040644,0,0,2.5040644,-2278.3862,-2312.3464)" />
      <path
         transform="matrix(1.0414235,0,0,1.0414235,326.89984,182.36661)"
         d="m 1757.5576,1145.3185 c 0,397.0897 -321.9048,718.9945 -718.9945,718.9945 -397.08969,0 -718.9945,-321.9048 -718.9945,-718.9945 0,-397.08972 321.90481,-718.99453 718.9945,-718.99453 397.0897,0 718.9945,321.90481 718.9945,718.99453 z"
         sodipodi:ry="718.99451"
         sodipodi:rx="718.99451"
         sodipodi:cy="1145.3185"
         sodipodi:cx="1038.5631"
         id="path3851"
         style="fill:none;stroke:#f8eb11;stroke-width:61.94364929;stroke-linecap:butt;stroke-linejoin:round;stroke-miterlimit:4;stroke-opacity:1;stroke-dasharray:none;stroke-dashoffset:0"
         sodipodi:type="arc" />
    </g>
    <path
       style="fill:#f8eb11;fill-opacity:1;stroke:none;display:inline"
       d="m 302.34705,-97.368624 c -41.1195,65.2865 -45.1751,121.6298 -51.1563,160.9686 -48.5715,-39.1544 -97.1315,-100.9549 -219.531305,-67.0625004 C 129.86035,28.270876 144.83405,73.678973 174.28445,115.56867 c -34.6858,-13.5292 -117.407605,-39.955097 -189.593705,36.75 100.4158,-19.4539 130.373605,28.0932 160.468705,53.3126 -51.375605,15.0996 -108.810805,22.4572 -153.2812047,80.09371 87.3754997,-22.46531 122.8248047,8.6665 156.0625047,22.9375 l 18.0937,4.3438 c -0.2314,0.1949 -0.4564,0.3978 -0.6874,0.5937 49.3847,11.8627 92.7977,21.5065 135.6562,35.0625 42.8767,-13.5636 86.31,-23.1946 135.7188,-35.0625 -0.04,-0.034 -0.085,-0.06 -0.125,-0.094 l 20.1562,-4.8435 c 33.2377,-14.271 68.687,-45.40281 156.06251,-22.9375 -44.4704,-57.63661 -101.93681,-64.99411 -153.31251,-80.09371 30.0951,-25.2194 60.0529,-72.7666 160.46881,-53.3126 -72.1861,-76.705097 -154.90771,-50.2792 -189.59381,-36.75 C 459.82885,73.678973 474.83375,28.270876 573.03446,-3.4625244 450.63505,-37.354924 402.04355,24.445576 353.47205,63.599976 c -5.9812,-39.3388 -10.0059,-95.6821 -51.125,-160.9686 z M 142.81575,335.00628 c -22.1152,23.4209 -41.5199,51.6236 -57.500005,83.5312 16.059505,2.5712 32.783705,5.6609 50.000005,9.3125 43.6796,-28.4828 82.5304,-48.1412 120.25,-63.0937 -32.6053,-8.6846 -66.8727,-16.2847 -105.6563,-25.6876 -2.6928,-0.6236 -5.193,-2.0555 -7.0937,-4.0624 z m 316.4063,0.031 c -1.9048,1.9957 -4.4045,3.4162 -7.0938,4.0312 -38.7834,9.4029 -73.0511,17.0029 -105.6562,25.6876 37.7194,14.9525 76.5704,34.6109 120.25,63.0937 17.2235,-3.6537 33.9333,-6.7402 50,-9.3125 -15.9754,-31.8983 -35.3912,-60.0837 -57.5,-83.5 z m -158.2188,43.0625 c -40.8618,13.3789 -81.1998,30.896 -127.0938,58.7187 40.903,10.4039 83.8709,24.1943 127.125,42.2813 43.2493,-18.0865 86.1943,-31.8776 127.0938,-42.2813 -45.9045,-27.8291 -86.2535,-45.3386 -127.125,-58.7187 z m -227.187505,65.375 c -5.2812,12.5543 -10.0516,25.5832 -14.2813,39.0313 14.8999,-11.6961 29.2165,-22.3756 43.000005,-32.2188 -7.335105,-1.3438 -14.595005,-2.6144 -21.687405,-3.75 -2.5645,-0.3531 -5.0261,-1.4253 -7.0313,-3.0625 z m 454.406305,0.031 c -2.0001,1.621 -4.4494,2.6816 -7,3.0312 -7.1024,1.1371 -14.3732,2.404 -21.7188,3.75 13.7883,9.8466 28.0947,20.5493 43.00001,32.25 -4.2292,-13.4505 -9.0001,-26.4749 -14.28121,-39.0312 z m -387.4063,14.5624 c -21.9538,14.832 -45.318405,32.0196 -70.656305,52.1876 -2.5356,2.172 -5.8587,3.4038 -9.1974,3.4095 -3.3387,0.01 -6.6659,-1.2151 -9.2088,-3.3785 -2.3059,9.2806 -4.366,18.7129 -6.1562,28.3125 1.7259,-0.6741 3.5849,-1.0053 5.4374,-0.9687 0.9354,0.022 1.8686,0.1377 2.7813,0.3437 31.3007,6.2933 64.396305,13.6683 98.500005,22.9375 36.541,-25.9046 74.4443,-47.5775 112.5313,-65.6875 -42.5322,-16.1942 -84.493,-28.2559 -124.0313,-37.1563 z m 320.4063,0 c -39.5297,8.8998 -81.4786,20.9662 -124,37.1563 38.0817,18.1075 75.9957,39.7887 112.5312,65.6875 34.0935,-9.2655 67.1769,-16.646 98.46881,-22.9375 0.781,-0.1709 1.5764,-0.2756 2.375,-0.3125 1.9996,-0.086 4.0166,0.2569 5.875,1 -1.7939,-9.6257 -3.8753,-19.1014 -6.1876,-28.4062 -2.5393,2.1677 -5.8644,3.3939 -9.2031,3.3939 -3.3387,0 -6.6638,-1.2262 -9.20311,-3.3939 -25.3377,-20.168 -48.7024,-37.3555 -70.6562,-52.1876 z m -160.1876,51.9376 c -38.1731,16.6311 -76.3793,36.7789 -113.3124,61.125 37.2486,11.4523 75.3279,25.4374 113.2812,42.9374 37.9715,-17.5101 76.0775,-31.4809 113.3438,-42.9374 -36.9333,-24.3461 -75.1393,-44.4939 -113.3126,-61.125 z m 259.31261,52.6567 c -1.8628,1.5695 -4.1368,2.6467 -6.5313,3.0938 -24.19061,4.8636 -49.33781,10.3649 -75.06251,16.8437 28.9432,22.8625 56.75811,48.6201 82.81251,77.625 1.1483,1.2697 2.0638,2.7494 2.6875,4.3437 0.5759,-10.0665 0.9062,-20.2549 0.9062,-30.5312 0,-24.4174 -1.6477,-48.2664 -4.8124,-71.375 z m -518.656315,0.031 c -3.1614,23.0949 -4.8125,46.9425 -4.8125,71.3438 0,10.2869 0.329,20.4858 0.9062,30.5625 0.6297,-1.6077 1.5562,-3.0985 2.7188,-4.375 26.0544,-29.0049 53.871,-54.7625 82.812505,-77.625 -25.723305,-6.4788 -50.871905,-11.98 -75.062505,-16.8437 -2.4023,-0.433 -4.6876,-1.4995 -6.5625,-3.0626 z m 116.312505,29.1563 c -29.2403,21.5789 -57.4144,46.0035 -83.812505,73.6875 30.843205,7.1462 62.354605,16.2882 93.968705,27.4688 32.4291,-24.4474 65.9039,-45.1048 99.7188,-62.6876 -36.8618,-15.6925 -73.7788,-28.2078 -109.875,-38.4687 z m 286.0625,0 c -36.0987,10.2609 -73.041,22.7762 -109.9063,38.4687 33.815,17.5829 67.2898,38.2401 99.7188,62.6876 31.6141,-11.1806 63.1255,-20.3226 93.9688,-27.4688 -26.3939,-27.6777 -54.5464,-52.1126 -83.7813,-73.6875 z m -143.0313,53.5 c -34.2837,16.5261 -68.2657,36.0791 -101.2187,59.53132 34.0616,13.4984 68.0236,29.3469 101.1875,47.5624 33.1716,-18.2212 67.1489,-34.0608 101.2188,-47.5624 -32.9477,-23.45022 -66.91,-43.00612 -101.1876,-59.53132 z m 262.21881,33.4375 c -1.3164,5.1323 -5.7429,9.3311 -10.9375,10.375 -30.03811,6.2228 -60.91201,14.49472 -92.03131,24.81252 27.6967,23.1503 54.4586,49.3355 79.81261,79.0313 11.7906,-35.3844 19.743,-73.811 23.1562,-114.21882 z m -524.437515,0.4062 c 3.4332,40.26062 11.402,78.54572 23.1563,113.81262 25.3494,-29.689 52.089905,-55.8855 79.781205,-79.0313 -31.1191,-10.3178 -61.993205,-18.58972 -92.031205,-24.81252 -5.0855,-0.9899 -9.4645,-4.9925 -10.9063,-9.9688 z M 429.03445,725.0061 c -33.1857,12.4194 -66.4056,27.1448 -98.9374,44.1562 31.2201,18.7637 61.5225,39.6976 90.2812,62.8125 27.8221,-11.6722 56.7585,-22.0955 87.9688,-32.2187 -25.2536,-28.1998 -51.8226,-52.96 -79.3126,-74.75 z m -256,0.031 c -27.4884,21.7885 -54.0924,46.522 -79.343705,74.7188 31.210205,10.1229 60.150005,20.5475 87.968705,32.2187 28.7589,-23.1149 59.0612,-44.0488 90.2813,-62.8125 -32.5196,-17.005 -65.7329,-31.7085 -98.9063,-44.125 z m 127.9688,60.0625 c -31.0647,17.8195 -61.282,37.7773 -89.9688,59.875 30.2685,14.1266 59.7157,30.2676 89.9688,49.6875 30.2585,-19.4223 59.7262,-35.5595 90,-49.6875 -28.694,-22.1032 -58.927,-42.0521 -90,-59.875 z M 73.128245,822.9433 c 10.9672,26.3884 24.1617,50.6803 39.218805,72.4063 14.3556,-14.9709 29.3423,-29.2685 44.875,-42.875 -26.3058,-10.468 -53.9669,-20.0092 -84.093805,-29.5313 z m 455.781205,0 c -30.1269,9.5221 -57.7881,19.0633 -84.0937,29.5313 15.5325,13.6065 30.5194,27.9041 44.875,42.875 15.057,-21.7281 28.2524,-46.0145 39.2187,-72.4063 z m -342.4374,41.8126 c -19.1749,16.1239 -37.5259,33.254 -54.8438,51.4062 -0.632,0.7031 -1.3346,1.3427 -2.0938,1.9062 21.3077,25.7367 45.5436,46.7869 71.9063,61.9688 -1.9381,-5.5679 0.054,-12.2697 4.7187,-15.875 24.1334,-19.697 46.9925,-36.9571 69.1876,-52.3438 -29.7029,-18.4642 -58.6727,-33.6719 -88.875,-47.0624 z m 229.0937,0 c -30.2024,13.3905 -59.1723,28.5983 -88.875,47.0624 22.1929,15.3866 45.0542,32.6468 69.1875,52.3438 4.6648,3.6053 6.6568,10.3071 4.7188,15.875 26.3694,-15.1829 50.5954,-36.2244 71.9062,-61.9688 -0.7592,-0.5635 -1.4618,-1.2031 -2.0938,-1.9062 -17.3179,-18.1522 -35.6689,-35.2823 -54.8437,-51.4062 z m -114.5625,63.6874 c -24.4511,16.5271 -49.736,35.4806 -76.9062,57.6563 -1.5529,1.3427 -3.4011,2.3421 -5.375,2.9063 82.2346,-0.051 82.2346,-0.097 164.5937,0 -1.9739,-0.5642 -3.8221,-1.5636 -5.375,-2.9063 -27.1781,-22.1822 -52.4798,-41.1258 -76.9375,-57.6563 z"
       id="path4722"
       inkscape:connector-curvature="0"
       sodipodi:nodetypes="ccccccccccccccccccccccccccccccccccccccccccccccccccscccccccccccccccsccccccccccccsccsccccccccccccccccccccccccccccccccccccccccccccccccccccccccccccccccccccccccc" />
  </g>
</svg>
